<svg xmlns="http://www.w3.org/2000/svg" viewBox="0 0 300 60" fill="none">
  <defs>
    <linearGradient id="grad1" x1="0%" y1="0%" x2="100%" y2="0%">
      <stop offset="0%" style="stop-color:#2563EB;stop-opacity:1" />
      <stop offset="100%" style="stop-color:#9333EA;stop-opacity:1" />
    </linearGradient>
  </defs>
  
  <!-- Icon: Speech bubble with electrical signal/AI wave -->
  <path d="M45 10C25.67 10 10 21.19 10 35C10 44.8 18.1 53.28 30 57.2V65L42 58.5C43 58.6 44 58.65 45 58.65C64.33 58.65 80 47.46 80 33.65C80 19.84 64.33 10 45 10ZM45 45C43 45 41 43 41 41C41 39 43 37 45 37C47 37 49 39 49 41C49 43 47 45 45 45ZM60 35H30V31H60V35Z" fill="url(#grad1)"/>
  
  <!-- Text: Interview.me -->
  <text x="90" y="42" font-family="'Inter', sans-serif" font-weight="bold" font-size="32" fill="white">Interview.me</text>
</svg>
